<svg width="92" height="111" fill="none" xmlns="http://www.w3.org/2000/svg">
  <path fill-rule="evenodd" clip-rule="evenodd" d="M60.56 22.407c1.548-1.706 2.44-3.81 2.44-6.264C63 8.974 58.467 1 46 1 33.533 1 29 8.974 29 16.143c0 2.453.892 4.558 2.44 6.264C13.734 28.46 1 45.242 1 65c0 24.853 20.147 45 45 45s45-20.147 45-45c0-19.758-12.733-36.541-30.44-42.593zM37.034 26.01C39.637 26.985 42.71 27.5 46 27.5s6.363-.515 8.965-1.491C72.74 30.079 86 45.99 86 65c0 22.091-17.909 40-40 40S6 87.091 6 65c0-19.01 13.26-34.921 31.035-38.991z" fill="#fff"/>
  <path d="M60.56 22.407l-.37-.336.208.81.161-.474zm-29.12 0l.162.474.209-.81-.37.336zm5.595 3.602l.176-.468-.288-.02.112.488zm17.93 0l.112-.488-.288.02.176.468zm7.535-9.866c0 2.322-.84 4.308-2.31 5.928l.74.672c1.627-1.793 2.57-4.015 2.57-6.6h-1zM46 1.5c6.12 0 10.228 1.954 12.81 4.724 2.588 2.78 3.69 6.434 3.69 9.919h1c0-3.684-1.165-7.6-3.96-10.6C56.739 2.532 52.347.5 46 .5v1zM29.5 16.143c0-3.485 1.102-7.14 3.69-9.919C35.773 3.454 39.88 1.5 46 1.5v-1c-6.346 0-10.738 2.034-13.54 5.042-2.795 3-3.96 6.917-3.96 10.6h1zm2.31 5.928c-1.47-1.62-2.31-3.606-2.31-5.928h-1c0 2.585.943 4.807 2.57 6.6l.74-.672zm-.531-.137C13.375 28.053.5 45.022.5 65h1c0-19.537 12.59-36.135 30.102-42.12l-.323-.946zM.5 65c0 25.129 20.371 45.5 45.5 45.5v-1C21.423 109.5 1.5 89.577 1.5 65h-1zM46 110.5c25.129 0 45.5-20.371 45.5-45.5h-1c0 24.577-19.923 44.5-44.5 44.5v1zM91.5 65c0-19.978-12.875-36.947-30.779-43.066l-.323.947C77.909 28.865 90.5 45.463 90.5 65h1zM46 27c-3.24 0-6.252-.507-8.79-1.46l-.351.937C39.527 27.478 42.659 28 46 28v-1zm8.79-1.46C52.252 26.494 49.24 27 46 27v1c3.34 0 6.473-.522 9.141-1.523l-.352-.936zM86.5 65c0-19.247-13.426-35.358-31.423-39.479l-.223.975C72.406 30.516 85.5 46.229 85.5 65h1zM46 105.5c22.368 0 40.5-18.132 40.5-40.5h-1c0 21.815-17.685 39.5-39.5 39.5v1zM5.5 65c0 22.368 18.133 40.5 40.5 40.5v-1C24.185 104.5 6.5 86.815 6.5 65h-1zm31.423-39.479C18.926 29.642 5.5 45.753 5.5 65h1c0-18.77 13.094-34.485 30.646-38.504l-.223-.975z" fill="#E5E5E5"/>
  <path d="M29 16s6 1.5 17 1.5S63 16 63 16" stroke="#E5E5E5"/>
  <path fill-rule="evenodd" clip-rule="evenodd" d="M6.88 59.5H5.87a40.946 40.946 0 00-.123 10h1.007a39.925 39.925 0 01.126-10zm78.366 10a39.92 39.92 0 00-.126-10h1.01a40.928 40.928 0 01.123 10h-1.007z" fill="#000"/>
  <path fill="#000" d="M9 64h74v1H9z"/>
  <path d="M80 61l3 3.5-3 3.5M12 68l-3-3.5 3-3.5" stroke="#000"/>
</svg>