<svg width="156" height="109" viewBox="0 0 156 109" fill="none" xmlns="http://www.w3.org/2000/svg">
<path d="M78.5001 93.9999C83.4865 83.4148 86.613 75.1968 88.183 64.1309C88.3862 62.6991 88.3864 61.5153 88.7408 60.1416" stroke="black" stroke-linecap="round" stroke-linejoin="round"/>
<path d="M58.0001 82.5C67.3639 75.3395 73.797 65.8366 78.115 56.9075" stroke="black" stroke-linecap="round" stroke-linejoin="round"/>
<path d="M74.6113 46.5515C73.2835 42.3965 69.6379 38.462 70.7555 37.7385C75.7755 34.4885 83.1478 41.2054 81.4131 45.8206C82.984 41.5408 90.2609 24.8898 93.531 25.9914C96.801 27.093 92.9803 44.0175 90.2262 41.9649C87.4721 39.9123 101.793 26.5422 105.098 29.2963C108.403 32.0503 95.773 46.5 94.5001 45C93.2271 43.5 107.485 38.1092 108.403 40.8633C109.321 43.6174 96.8359 50.227 96.8359 50.227C96.8359 50.227 107.852 47.7818 108.403 50.227C108.954 52.6723 88.5737 61.7019 83.4242 59.7709C75.7448 56.8911 76.8351 53.5105 74.6113 46.5515Z" stroke="black" stroke-linecap="round" stroke-linejoin="round"/>
<path d="M125.5 45.5C127.42 47.2037 135.637 52.3552 135.873 55C136.802 65.3992 136.234 60.8171 136.234 70.9461C136.234 81.6508 136.5 90.2953 136.5 101C136.5 103.5 135.5 105 133 105C104.061 105 76.6046 107.658 47.6661 107.658C40.6086 107.658 33.5824 108.063 26.5271 108.063C22.8614 108.063 21.935 108.513 21.8396 104.412C21.4897 89.3658 20.3071 59.3399 20.3071 59.3399C20.3071 59.3399 19.4718 55.678 22 53.5L31 46.5" stroke="black" stroke-linecap="round" stroke-linejoin="round"/>
<path d="M30.4897 16.4339C46.5677 16.4339 62.6316 16.0283 78.6898 16.0283C84.7559 16.0283 90.8023 15.6226 96.8698 15.6226C99.5883 15.6226 103.57 15.8482 106.212 15.0141C107.562 14.5879 109.202 14.8113 110.599 14.8113C113.265 14.8113 115.893 14.4057 118.535 14.4057C120.857 14.4057 123.511 14.7883 125.714 14" stroke="black" stroke-linecap="round" stroke-linejoin="round"/>
<path d="M126 14C126 27.2309 125.5 41.1715 125.5 54.4075C125.5 57.5939 126.5 60.8183 126.5 64" stroke="black" stroke-linecap="round" stroke-linejoin="round"/>
<path d="M30.5 16C30.5 28.8885 31.5 41.7623 31.5 54.6557C31.5 57.7597 31.5 65.9006 31.5 69" stroke="black" stroke-linecap="round" stroke-linejoin="round"/>
<path d="M20.5001 63.9222C27.0739 67.089 33.8156 69.8962 40.3533 73.1382C49.1318 77.4914 57.6518 82.3988 66.1984 87.1859C70.6114 89.6577 74.8101 92.7783 79.4116 94.9032C80.8021 95.5453 83.5726 92.8102 84.6879 92.107C88.9179 89.4402 93.3252 87.0709 97.588 84.4569C101.176 82.2565 104.453 79.5716 108.051 77.3883C110.374 75.979 112.78 74.7747 114.848 72.9816C116.687 71.3871 118.586 69.7056 120.616 68.3512C123.308 66.5557 126.213 64.9179 129.157 63.609C131.325 62.645 135.116 61.0764 136.5 59" stroke="black" stroke-linecap="round" stroke-linejoin="round"/>
<path d="M138.934 1.59253C139.961 2.46303 146.761 7.77093 147.188 6.91757" stroke="black" stroke-linecap="round" stroke-linejoin="round"/>
<path d="M145.856 2.39136C145.317 2.83588 137.638 9.61527 137.602 9.58017" stroke="black" stroke-linecap="round" stroke-linejoin="round"/>
<path d="M143.194 1.06006C142.809 3.61215 142.928 6.20608 142.928 8.78137" stroke="black" stroke-linecap="round" stroke-linejoin="round"/>
<path d="M151 13C151.498 13.6539 154.182 16.3107 155 17" stroke="black" stroke-linecap="round" stroke-linejoin="round"/>
<path d="M155 13C154.739 13.2473 151.017 17.0195 151 16.9999" stroke="black" stroke-linecap="round" stroke-linejoin="round"/>
<path d="M86.4291 21.5291C83.8653 22.5735 81.0748 25.3023 80.3646 28.4732" stroke="black" stroke-linecap="round" stroke-linejoin="round"/>
<path d="M82.4293 21.4919C81.5019 22.0604 80.4361 22.5488 79.8591 23.5793C79.6959 23.8707 79.5757 24.1838 79.4016 24.464" stroke="black" stroke-linecap="round" stroke-linejoin="round"/>
<path d="M114.435 50.1036C112.456 53.1268 110.126 55.8737 107.5 58.3478" stroke="black" stroke-linecap="round" stroke-linejoin="round"/>
<path d="M114.968 55.0458C113.903 56.7868 112.948 57.8265 111.325 59.0224" stroke="black" stroke-linecap="round" stroke-linejoin="round"/>
</svg>
