<svg width="24" height="24" viewBox="0 0 24 24" fill="none" xmlns="http://www.w3.org/2000/svg">
<path fill-rule="evenodd" clip-rule="evenodd" d="M23.4493 5.96514C23.6161 5.4088 23.4493 5 22.6553 5H20.0297C19.3621 5 19.0543 5.35314 18.8874 5.74256C18.8874 5.74256 17.5521 8.9971 15.6606 11.1111C15.0487 11.7231 14.7705 11.9178 14.4367 11.9178C14.2698 11.9178 14.0282 11.7231 14.0282 11.1668V5.96514C14.0282 5.29753 13.8345 5 13.2781 5H9.15213C8.73494 5 8.48403 5.30985 8.48403 5.60351C8.48403 6.23639 9.42974 6.38234 9.52722 8.16262V12.0291C9.52722 12.8768 9.37413 13.0305 9.04032 13.0305C8.15023 13.0305 5.98507 9.76144 4.70093 6.02075C4.44927 5.29369 4.19686 5 3.52583 5H0.900217C0.150043 5 0 5.35314 0 5.74256C0 6.43799 0.89014 9.88725 4.14464 14.4491C6.31429 17.5645 9.37118 19.2533 12.1528 19.2533C13.8218 19.2533 14.0283 18.8782 14.0283 18.2321V15.8775C14.0283 15.1274 14.1864 14.9776 14.7149 14.9776C15.1043 14.9776 15.7719 15.1723 17.3296 16.6744C19.1099 18.4547 19.4034 19.2533 20.4047 19.2533H23.0304C23.7805 19.2533 24.1556 18.8782 23.9392 18.138C23.7024 17.4003 22.8525 16.3299 21.7247 15.0611C21.1127 14.3379 20.1947 13.559 19.9165 13.1695C19.5271 12.6689 19.6384 12.4463 19.9165 12.0013C19.9165 12.0013 23.1155 7.49501 23.4493 5.96514Z" fill="#4680C2"/>
</svg>
