<svg width="16" height="16" viewBox="0 0 16 16" fill="none" xmlns="http://www.w3.org/2000/svg">
<mask id="mask0" mask-type="alpha" maskUnits="userSpaceOnUse" x="0" y="0" width="16" height="16">
<circle cx="8" cy="8" r="7.5" fill="black" stroke="black"/>
</mask>
<g mask="url(#mask0)">
<circle cx="8" cy="8" r="8" fill="#F2F2F2"/>
<rect y="15" width="16" height="2" fill="#EB5757"/>
<rect y="7" width="16" height="2" fill="#EB5757"/>
<rect y="11" width="16" height="2" fill="#EB5757"/>
<rect x="8" y="3" width="8" height="2" fill="#EB5757"/>
<rect x="8" y="-1" width="8" height="2" fill="#EB5757"/>
<rect width="9" height="9" transform="matrix(1 0 0 -1 0 9)" fill="#2F80ED"/>
<path d="M7.5 6.5L7.72453 7.19096L8.45106 7.19098L7.8633 7.61804L8.08779 8.30902L7.5 7.882L6.91221 8.30902L7.1367 7.61804L6.54894 7.19098L7.27547 7.19096L7.5 6.5Z" fill="white"/>
<path d="M4.5 6.5L4.72453 7.19096L5.45106 7.19098L4.8633 7.61804L5.08779 8.30902L4.5 7.882L3.91221 8.30902L4.1367 7.61804L3.54894 7.19098L4.27547 7.19096L4.5 6.5Z" fill="white"/>
<path d="M1.5 6.5L1.72453 7.19096L2.45106 7.19098L1.8633 7.61804L2.08779 8.30902L1.5 7.882L0.912215 8.30902L1.1367 7.61804L0.548943 7.19098L1.27547 7.19096L1.5 6.5Z" fill="white"/>
<path d="M6 4.5L6.22453 5.19096L6.95106 5.19098L6.3633 5.61804L6.58779 6.30902L6 5.882L5.41221 6.30902L5.6367 5.61804L5.04894 5.19098L5.77547 5.19096L6 4.5Z" fill="white"/>
<path d="M3 4.5L3.22453 5.19096L3.95106 5.19098L3.3633 5.61804L3.58779 6.30902L3 5.882L2.41221 6.30902L2.6367 5.61804L2.04894 5.19098L2.77547 5.19096L3 4.5Z" fill="white"/>
<path d="M0 4.5L0.224534 5.19096L0.951056 5.19098L0.363304 5.61804L0.587785 6.30902L0 5.882L-0.587785 6.30902L-0.363304 5.61804L-0.951057 5.19098L-0.224534 5.19096L0 4.5Z" fill="white"/>
<path d="M7.5 2.5L7.72453 3.19096L8.45106 3.19098L7.8633 3.61804L8.08779 4.30902L7.5 3.882L6.91221 4.30902L7.1367 3.61804L6.54894 3.19098L7.27547 3.19096L7.5 2.5Z" fill="white"/>
<path d="M4.5 2.5L4.72453 3.19096L5.45106 3.19098L4.8633 3.61804L5.08779 4.30902L4.5 3.882L3.91221 4.30902L4.1367 3.61804L3.54894 3.19098L4.27547 3.19096L4.5 2.5Z" fill="white"/>
<path d="M1.5 2.5L1.72453 3.19096L2.45106 3.19098L1.8633 3.61804L2.08779 4.30902L1.5 3.882L0.912215 4.30902L1.1367 3.61804L0.548943 3.19098L1.27547 3.19096L1.5 2.5Z" fill="white"/>
<path d="M6 0.5L6.22453 1.19096L6.95106 1.19098L6.3633 1.61804L6.58779 2.30902L6 1.882L5.41221 2.30902L5.6367 1.61804L5.04894 1.19098L5.77547 1.19096L6 0.5Z" fill="white"/>
<path d="M3 0.5L3.22453 1.19096L3.95106 1.19098L3.3633 1.61804L3.58779 2.30902L3 1.882L2.41221 2.30902L2.6367 1.61804L2.04894 1.19098L2.77547 1.19096L3 0.5Z" fill="white"/>
<path d="M0 0.5L0.224534 1.19096L0.951056 1.19098L0.363304 1.61804L0.587785 2.30902L0 1.882L-0.587785 2.30902L-0.363304 1.61804L-0.951057 1.19098L-0.224534 1.19096L0 0.5Z" fill="white"/>
</g>
</svg>
