<svg width="16" height="16" viewBox="0 0 16 16" fill="none" xmlns="http://www.w3.org/2000/svg">
<path fill-rule="evenodd" clip-rule="evenodd" d="M15.6329 3.97668C15.7441 3.60579 15.6329 3.33325 15.1035 3.33325H13.3531C12.908 3.33325 12.7029 3.56868 12.5916 3.82829C12.5916 3.82829 11.7014 5.99799 10.4404 7.40735C10.0325 7.81531 9.84699 7.94512 9.62446 7.94512C9.51321 7.94512 9.35215 7.81531 9.35215 7.44445V3.97668C9.35215 3.53161 9.22298 3.33325 8.85206 3.33325H6.10142C5.82329 3.33325 5.65602 3.53982 5.65602 3.73559C5.65602 4.15751 6.28649 4.25481 6.35148 5.44166V8.01933C6.35148 8.58447 6.24942 8.68693 6.02688 8.68693C5.43349 8.68693 3.99005 6.50754 3.13395 4.01375C2.96618 3.52905 2.79791 3.33325 2.35055 3.33325H0.600144C0.100028 3.33325 0 3.56868 0 3.82829C0 4.29191 0.593426 6.59142 2.76309 9.63267C4.20953 11.7096 6.24745 12.8355 8.10188 12.8355C9.21453 12.8355 9.35217 12.5854 9.35217 12.1547V10.5849C9.35217 10.0848 9.45758 9.98501 9.80992 9.98501C10.0695 9.98501 10.5146 10.1148 11.5531 11.1162C12.7399 12.303 12.9356 12.8355 13.6032 12.8355H15.3536C15.8537 12.8355 16.1037 12.5854 15.9595 12.0919C15.8016 11.6001 15.235 10.8865 14.4831 10.0406C14.0751 9.55849 13.4632 9.03927 13.2777 8.7796C13.0181 8.44585 13.0923 8.29746 13.2777 8.00078C13.2777 8.00078 15.4103 4.99659 15.6329 3.97668Z" fill="#4680C2"/>
</svg>
